PathFileType	4	(X/Y/Z)	OpenSim_Sub06_EMGBaseline_Magnet.trc
DataRate	CameraRate	NumFrames	NumMarkers	Units	OrigDataRate	OrigDataStartFrame	OrigNumFrames
100	100	40	8	m	100	3102	8270
Frame#	Time	torso_imu_offset_imu	pelvis_imu_offset_imu	tibia_r_imu_offset_imu	femur_r_imu_offset_imu	tibia_l_imu_offset_imu	femur_l_imu_offset_imu	toes_r_imu_offset_imu	toes_l_imu_offset_imu
				X1	Y1	Z1	X2	Y2	Z2	X3	Y3	Z3	X4	Y4	Z4	X5	Y5	Z5	X6	Y6	Z6	X7	Y7	Z7	X8		Y8	Z8	

3102	31.01000000	-0.94455465	-0.17557930	0.07166972	-0.53332135	0.17974730	-0.75613545	-0.54591769	-0.59535133	-0.14964681	-0.75048957	-0.31488551	0.14203969	-0.22557831	0.80705797	-0.02448860	-0.77627864	0.12548570	0.26950329	-0.59659555	-0.21768125	-0.49205394	-0.81767423	0.22249780	0.08424217
3103	31.02000000	-0.94689937	-0.17755386	0.06980463	-0.52267018	0.16942575	-0.76076212	-0.54258353	-0.59995108	-0.15166929	-0.74407577	-0.32287005	0.14478321	-0.24278691	0.79720474	-0.04024259	-0.78694609	0.12091877	0.26455375	-0.59796422	-0.21529453	-0.49596437	-0.81506550	0.21586036	0.05492099
3104	31.03000000	-0.94835748	-0.17349621	0.07645004	-0.52720934	0.16550331	-0.76497354	-0.54391747	-0.60756652	-0.15434305	-0.74431853	-0.32669423	0.14437796	-0.25329280	0.78889406	-0.03436734	-0.78553946	0.10943473	0.25902360	-0.59185102	-0.21570245	-0.49356736	-0.81917793	0.20487468	0.03180527
3105	31.04000000	-0.94461850	-0.17265833	0.08117930	-0.52190360	0.15925002	-0.76694720	-0.53720153	-0.60535213	-0.16291569	-0.73911502	-0.33134295	0.14327117	-0.27016981	0.78509346	-0.03467342	-0.78301858	0.09702231	0.26596961	-0.59409897	-0.22217776	-0.49424899	-0.81650547	0.19908141	-0.00398126
3106	31.05000000	-0.94853955	-0.16506877	0.08890490	-0.52040868	0.15721054	-0.76638486	-0.53311441	-0.61241172	-0.16267870	-0.73101760	-0.33900652	0.15517006	-0.29725828	0.78193883	-0.03610511	-0.78324245	0.09054766	0.26586914	-0.59429726	-0.22785967	-0.49995232	-0.81615172	0.19468428	-0.02835647
3107	31.06000000	-0.94002431	-0.16885492	0.08434270	-0.52256465	0.15281875	-0.76406247	-0.52838324	-0.61823616	-0.16910238	-0.73171560	-0.34142135	0.15360243	-0.32141118	0.76574365	-0.03223320	-0.78745666	0.08176752	0.27046221	-0.59786097	-0.23009026	-0.49548164	-0.81133958	0.18572432	-0.06027805
3108	31.07000000	-0.94504565	-0.16059974	0.08928111	-0.52217306	0.14894933	-0.76703017	-0.51984401	-0.61753376	-0.17141526	-0.73305540	-0.34965215	0.14549740	-0.34760461	0.75295966	-0.02172446	-0.78915289	0.07514672	0.26756304	-0.59589794	-0.23410818	-0.50047175	-0.80890988	0.17758127	-0.08602991
3109	31.08000000	-0.94536256	-0.16272025	0.09308404	-0.52222079	0.14942928	-0.77376080	-0.51469973	-0.61623947	-0.17810095	-0.72822339	-0.35124234	0.15052346	-0.37236735	0.73940619	-0.00963934	-0.78855356	0.06666261	0.26637098	-0.59987527	-0.23637265	-0.50364612	-0.80654851	0.17562833	-0.10686866
3110	31.09000000	-0.95119568	-0.15863501	0.09589160	-0.51932132	0.14834304	-0.77339208	-0.51595809	-0.62447255	-0.17727505	-0.72267195	-0.35591956	0.14828098	-0.40248645	0.72406480	0.00023177	-0.78647881	0.05704322	0.26992047	-0.59518419	-0.24212228	-0.49692366	-0.80131795	0.16611673	-0.13581584
3111	31.10000000	-0.94479560	-0.15790130	0.10666476	-0.51314174	0.13827941	-0.77264729	-0.50993692	-0.62688485	-0.17467266	-0.72391353	-0.36443402	0.15360028	-0.42243138	0.71024690	0.00707255	-0.78783783	0.04303816	0.26195277	-0.59371834	-0.24235326	-0.49605138	-0.79694471	0.15057649	-0.15834942
3112	31.11000000	-0.94952988	-0.14796860	0.10582527	-0.51803440	0.14113977	-0.77115848	-0.51124047	-0.63473189	-0.17286948	-0.71527009	-0.37247153	0.15578120	-0.45378384	0.68831230	0.00600387	-0.78360563	0.04841759	0.27390528	-0.59776941	-0.24822881	-0.50203138	-0.79847731	0.13819622	-0.18466373
3113	31.12000000	-0.94756781	-0.15254594	0.11083047	-0.51697884	0.13784796	-0.77791038	-0.50054764	-0.63234941	-0.17742978	-0.71583140	-0.37609892	0.15589127	-0.48207331	0.67286770	0.00476896	-0.78600830	0.04719073	0.27485106	-0.59974591	-0.24857198	-0.50162703	-0.79128541	0.12934716	-0.20021661
3114	31.13000000	-0.95122317	-0.15029175	0.11217440	-0.51076408	0.13008045	-0.77742295	-0.49699758	-0.63693275	-0.17425927	-0.71503159	-0.37857060	0.15847004	-0.51054468	0.65268902	0.00218310	-0.78577098	0.03825396	0.27597171	-0.59897114	-0.25679096	-0.50139046	-0.78845606	0.11585021	-0.22334859
3115	31.14000000	-0.94295290	-0.14972508	0.10995900	-0.51068204	0.13302722	-0.77988134	-0.49708357	-0.64126105	-0.16998399	-0.70874405	-0.38680148	0.16123653	-0.53358984	0.63029641	0.00538850	-0.78787106	0.03474028	0.28120287	-0.59523012	-0.25890239	-0.50178314	-0.78149369	0.10116363	-0.25042429
3116	31.15000000	-0.94771889	-0.14343371	0.10991210	-0.50659050	0.13420455	-0.77998659	-0.49383601	-0.64717784	-0.17278301	-0.70869520	-0.39107361	0.16319944	-0.55372581	0.60397585	0.00047829	-0.78527537	0.03691179	0.26830333	-0.59961311	-0.26668011	-0.50577816	-0.78067879	0.08969342	-0.27478683
3117	31.16000000	-0.94510865	-0.14396104	0.11267402	-0.50829841	0.12774987	-0.78472107	-0.48318015	-0.64724423	-0.17925219	-0.70161996	-0.39918970	0.16157726	-0.58447231	0.57924137	0.00422435	-0.78358234	0.03460713	0.27870231	-0.60111115	-0.26665463	-0.50577275	-0.77099814	0.07289740	-0.29999358
3118	31.17000000	-0.94532111	-0.14351196	0.11890832	-0.50163003	0.12684178	-0.78591621	-0.48004783	-0.65411621	-0.17863051	-0.69555352	-0.40080590	0.16634028	-0.60815972	0.55108749	0.00129048	-0.78559660	0.03524020	0.28166097	-0.59900898	-0.27587709	-0.51001214	-0.76614906	0.06383374	-0.32858419
3119	31.18000000	-0.94580647	-0.13927039	0.11880401	-0.50039954	0.13223113	-0.77952227	-0.48082986	-0.65709234	-0.17834586	-0.69155003	-0.40549246	0.16902477	-0.63638846	0.52882290	0.00331051	-0.78370619	0.04429414	0.27718551	-0.60048360	-0.28502687	-0.51397170	-0.75606255	0.04137948	-0.35430372
3120	31.19000000	-0.94752964	-0.13740296	0.12330237	-0.50225313	0.12399430	-0.78210631	-0.46913356	-0.65381207	-0.17929632	-0.68939849	-0.41393874	0.17625186	-0.65204765	0.49772272	0.00717057	-0.78606805	0.04775463	0.27996213	-0.59678400	-0.28473031	-0.51570058	-0.74654652	0.02436957	-0.38887927
3121	31.20000000	-0.94316079	-0.13742540	0.12469385	-0.50234814	0.12603981	-0.78429948	-0.47036182	-0.66422496	-0.18498248	-0.68902603	-0.41932194	0.17856222	-0.66821666	0.46913972	0.01136925	-0.78575158	0.04860834	0.28184956	-0.60262184	-0.28957915	-0.51555200	-0.73706938	0.00456004	-0.40218802
3122	31.21000000	-0.94318320	-0.13760144	0.12341180	-0.50412793	0.12224254	-0.78366932	-0.46009379	-0.66618065	-0.18034362	-0.68441390	-0.41946477	0.18321874	-0.69323106	0.43834942	0.01738831	-0.78398815	0.06211580	0.27951026	-0.59604967	-0.29754178	-0.51551958	-0.72898696	-0.01477218	-0.42913677
3123	31.22000000	-0.94167122	-0.13686653	0.13174574	-0.50202282	0.12886625	-0.78190062	-0.46219535	-0.67218296	-0.18505827	-0.68118910	-0.42638924	0.18559312	-0.70093192	0.41492045	0.01861693	-0.78202615	0.06991592	0.27880867	-0.60064310	-0.30407031	-0.51775289	-0.71243436	-0.02930172	-0.44447132
3124	31.23000000	-0.94582625	-0.12861470	0.12659169	-0.50238874	0.12817056	-0.78399686	-0.45308214	-0.67188990	-0.18673690	-0.68448044	-0.43167649	0.18768601	-0.71648447	0.39525973	0.02457782	-0.78009611	0.07222169	0.27831076	-0.59975577	-0.31418753	-0.51960677	-0.69627454	-0.03809107	-0.46719534
3125	31.24000000	-0.94403614	-0.12963024	0.12990960	-0.50452511	0.12604190	-0.77925111	-0.44478469	-0.67442921	-0.18700419	-0.67297601	-0.42938620	0.18543217	-0.72560429	0.37547851	0.02414218	-0.77805682	0.08454417	0.28996729	-0.59981331	-0.32230485	-0.52088343	-0.68079671	-0.05340737	-0.48458451
3126	31.25000000	-0.94772394	-0.13327273	0.13321986	-0.50687668	0.12659580	-0.77962432	-0.43891589	-0.67874228	-0.19169371	-0.66614803	-0.43456210	0.18871788	-0.72907498	0.35853436	0.01230810	-0.77707701	0.10315315	0.27705080	-0.59979377	-0.32784991	-0.51444502	-0.67418567	-0.06352853	-0.49969124
3127	31.26000000	-0.94323368	-0.12854185	0.12457144	-0.51078754	0.13333581	-0.77657314	-0.43358201	-0.68502472	-0.19550069	-0.67235931	-0.44484664	0.19557111	-0.74979298	0.34777601	0.01576153	-0.77874354	0.10479964	0.29075635	-0.60436039	-0.33319722	-0.51272412	-0.66704284	-0.06987016	-0.50555033
3128	31.27000000	-0.94431889	-0.12465292	0.12912468	-0.50700123	0.13894809	-0.77067517	-0.41906304	-0.69110004	-0.19482616	-0.67138740	-0.44553779	0.19553270	-0.74194714	0.33703638	0.01399293	-0.76930796	0.11338458	0.28860677	-0.60715733	-0.35138097	-0.51047727	-0.66006705	-0.07404066	-0.50827642
3129	31.28000000	-0.94790769	-0.12750746	0.12674690	-0.51107970	0.13845400	-0.77491007	-0.41470484	-0.69551094	-0.19578910	-0.66523279	-0.43974652	0.19708222	-0.74946258	0.33067248	0.01657365	-0.76163259	0.11380943	0.30439808	-0.60304005	-0.35662907	-0.51272787	-0.65100439	-0.07866531	-0.51682438
3130	31.29000000	-0.94317580	-0.13093981	0.12702922	-0.50702808	0.13927424	-0.76810281	-0.40161387	-0.70380274	-0.20377077	-0.66384355	-0.44509279	0.19052056	-0.75066309	0.32411688	0.01477611	-0.76412232	0.12223357	0.30321450	-0.60723887	-0.36297408	-0.51188496	-0.64715472	-0.08722761	-0.51908447
3131	31.30000000	-0.94162166	-0.12389693	0.12652580	-0.51378136	0.14490702	-0.76784191	-0.39080631	-0.70749009	-0.20134147	-0.66762581	-0.45242781	0.19342622	-0.74792912	0.32299872	0.01979889	-0.76214567	0.12198517	0.30647259	-0.60935971	-0.37189162	-0.50308418	-0.65486166	-0.08309553	-0.52271125
3132	31.31000000	-0.94198933	-0.12112999	0.12145435	-0.51361354	0.14108576	-0.75904378	-0.37606744	-0.70978467	-0.20843340	-0.66769014	-0.44799001	0.19072954	-0.74167812	0.33222821	0.02355983	-0.76683278	0.12369277	0.31527801	-0.61500327	-0.38617885	-0.49700848	-0.66424491	-0.05702538	-0.50800295
3133	31.32000000	-0.94420819	-0.12666298	0.11339783	-0.51849394	0.15001791	-0.76684659	-0.36630111	-0.71412421	-0.21254054	-0.67233213	-0.44808803	0.19094068	-0.74214537	0.33823600	0.02778898	-0.76350161	0.11702755	0.32018414	-0.61743340	-0.39658347	-0.49042419	-0.67287529	-0.02867750	-0.49582667
3134	31.33000000	-0.94575539	-0.12088680	0.11315179	-0.52034672	0.15332239	-0.76344577	-0.35926947	-0.72054555	-0.21373815	-0.67361876	-0.44619641	0.18776506	-0.74009099	0.34614082	0.03183459	-0.75422018	0.11791792	0.33154184	-0.62440270	-0.41073072	-0.48183215	-0.68763050	-0.03263869	-0.49357855
3135	31.34000000	-0.94160427	-0.12939090	0.11176987	-0.52302503	0.15359133	-0.75360280	-0.34114292	-0.72863451	-0.20959399	-0.67182361	-0.45050914	0.17863878	-0.73511878	0.36555698	0.03242985	-0.74625723	0.11717256	0.34054328	-0.61790614	-0.41611227	-0.47311231	-0.68761520	-0.02650199	-0.48138099
3136	31.35000000	-0.94384824	-0.12438508	0.11303137	-0.52947391	0.15774480	-0.74588984	-0.31833699	-0.73547031	-0.21361350	-0.67598587	-0.44990753	0.17476435	-0.72274452	0.37152331	0.02996143	-0.74827254	0.11101770	0.35417329	-0.62310345	-0.42344387	-0.46012191	-0.69466884	-0.01696869	-0.47196207
3137	31.36000000	-0.94157168	-0.12480801	0.10415693	-0.53151352	0.15722915	-0.75262577	-0.30580578	-0.74764562	-0.21110314	-0.67622396	-0.44551344	0.17451003	-0.72529676	0.37739704	0.03733335	-0.73825640	0.11135234	0.36296462	-0.63092244	-0.44025845	-0.44278252	-0.69424670	-0.02637984	-0.47907990
3138	31.37000000	-0.94429049	-0.12492107	0.10224208	-0.53588623	0.15784692	-0.74223301	-0.29117986	-0.75134529	-0.21506805	-0.68353132	-0.43921966	0.16953576	-0.72068055	0.37874946	0.04583926	-0.73062958	0.11154533	0.37142242	-0.63897868	-0.45229285	-0.42370056	-0.70183550	-0.02490599	-0.48092664
3139	31.38000000	-0.94826322	-0.12695913	0.09787292	-0.54048070	0.16334331	-0.73657785	-0.27815567	-0.75824625	-0.21288847	-0.69352670	-0.43067109	0.16361825	-0.71858644	0.39851781	0.05168772	-0.73314795	0.11627530	0.37295613	-0.64417574	-0.46507472	-0.40290204	-0.70710318	-0.01613221	-0.48020493
3140	31.39000000	-0.94761512	-0.12443924	0.09541394	-0.54423252	0.15424498	-0.73878730	-0.25853020	-0.76601242	-0.21653779	-0.69355161	-0.42036709	0.15294014	-0.70704909	0.40158019	0.06064935	-0.72840949	0.12032056	0.37343808	-0.64658692	-0.47921047	-0.38078904	-0.69951806	-0.01513623	-0.47182633
3141	31.40000000	-0.94375530	-0.12282988	0.08900148	-0.54633265	0.15056667	-0.73571897	-0.23978764	-0.76800258	-0.20671582	-0.70100768	-0.41262986	0.15712358	-0.69874020	0.40617904	0.07410527	-0.72702682	0.11701481	0.37773194	-0.65895949	-0.49230188	-0.34461516	-0.71550860	-0.02189363	-0.47644966
